<?xml version="1.0" standalone="no"?>
<!DOCTYPE svg PUBLIC "-//W3C//DTD SVG 20010904//EN"
 "http://www.w3.org/TR/2001/REC-SVG-20010904/DTD/svg10.dtd">
<svg version="1.0" xmlns="http://www.w3.org/2000/svg"
 width="826.000000pt" height="830.000000pt" viewBox="0 0 826.000000 830.000000"
 preserveAspectRatio="xMidYMid meet">

<g transform="translate(0.000000,830.000000) scale(0.100000,-0.100000)"
fill="#000000" stroke="none">
<path d="M3790 7954 c-232 -19 -392 -45 -640 -105 -244 -60 -432 -122 -681
-225 -282 -116 -503 -250 -779 -470 -321 -256 -620 -616 -798 -960 -39 -76
-76 -146 -82 -154 -19 -27 1 41 27 93 33 67 44 97 34 97 -4 0 -43 -73 -86
-162 -42 -90 -88 -173 -101 -185 -19 -17 -23 -29 -18 -48 4 -17 1 -32 -9 -43
-8 -9 -25 -50 -36 -89 -12 -40 -24 -73 -28 -73 -8 0 6 137 17 164 5 11 29 76
54 142 60 161 54 149 179 387 60 114 107 210 105 212 -9 9 -169 -246 -235
-375 -82 -158 -138 -297 -188 -470 -20 -69 -55 -177 -77 -240 -44 -128 -67
-229 -98 -430 -11 -74 -30 -171 -41 -214 -11 -45 -17 -91 -14 -107 4 -16 1
-53 -5 -83 -32 -153 -47 -370 -39 -567 7 -199 17 -248 52 -278 10 -7 17 -28
17 -47 0 -18 11 -68 24 -109 34 -106 70 -143 93 -93 9 20 11 18 36 -27 15 -26
27 -55 27 -64 0 -9 11 -29 23 -45 30 -37 50 -27 45 20 -4 32 -3 33 15 16 28
-24 47 -74 47 -121 0 -54 17 -61 50 -21 30 37 42 35 67 -13 22 -43 89 -107
112 -107 25 0 43 24 39 51 -2 19 4 25 42 36 40 12 49 11 78 -4 19 -10 39 -25
45 -34 7 -9 29 -18 50 -22 30 -5 42 -2 55 14 9 10 23 19 32 19 8 0 28 16 44
36 24 31 30 34 38 20 13 -23 28 -20 28 7 0 13 9 35 21 48 11 13 36 49 55 79
37 60 42 100 23 189 -11 53 -5 75 32 112 24 24 24 51 -2 119 -18 46 -20 68
-16 135 6 79 6 80 -13 58 -24 -30 -44 -30 -33 0 4 12 8 40 8 62 0 30 -4 39
-15 38 -8 -2 -23 11 -32 28 -15 26 -20 28 -38 19 -53 -28 -121 86 -70 118 11
7 20 19 20 28 0 27 -28 70 -53 81 -83 38 -73 514 18 878 22 85 95 294 134 380
38 84 111 205 224 374 193 286 530 582 922 807 412 237 690 336 1116 401 146
22 662 25 809 5 671 -93 1175 -260 1547 -514 205 -139 326 -243 514 -441 103
-107 206 -221 229 -252 37 -50 135 -208 251 -405 125 -211 254 -617 298 -935
45 -322 52 -399 56 -560 4 -196 1 -189 -15 40 -12 161 -34 321 -50 357 -11 26
-12 27 17 -192 11 -85 18 -196 17 -300 0 -151 -3 -180 -38 -345 -21 -99 -49
-221 -62 -271 -34 -131 -138 -431 -190 -548 -24 -55 -42 -102 -39 -104 13 -13
120 236 195 456 29 84 54 151 56 149 5 -4 -66 -237 -106 -352 -129 -364 -431
-840 -726 -1145 -103 -106 -205 -195 -224 -195 -3 0 -4 -4 -2 -8 1 -4 -6 -10
-15 -14 -10 -4 -47 -33 -82 -65 -38 -35 -73 -58 -86 -58 -13 0 -71 -32 -130
-70 -214 -142 -369 -218 -639 -316 -84 -31 -155 -63 -165 -75 -11 -13 -67 -33
-181 -65 -91 -24 -174 -47 -185 -50 -13 -4 -17 -3 -10 4 6 5 55 23 109 38 137
38 105 42 -40 5 -66 -17 -157 -35 -204 -41 -47 -5 -130 -17 -185 -27 -128 -22
-628 -25 -775 -5 -473 64 -819 155 -1125 295 -260 119 -588 344 -798 546 -151
145 -118 93 45 -71 146 -147 229 -211 436 -336 221 -134 391 -214 600 -281
278 -89 480 -132 807 -171 297 -35 469 -36 815 -5 39 4 49 3 34 -4 -12 -5
-117 -17 -234 -26 -184 -15 -238 -16 -389 -6 -622 42 -1203 206 -1621 457
-385 232 -659 495 -897 862 -109 167 -108 167 -61 73 23 -47 79 -138 125 -203
46 -65 83 -122 83 -128 0 -19 -51 -10 -73 12 -12 13 -76 107 -142 210 -66 103
-121 183 -123 178 -5 -15 26 -68 144 -244 101 -151 133 -209 105 -191 -20 12
-191 256 -220 313 -30 59 -51 85 -51 62 0 -6 12 -33 26 -61 14 -28 23 -53 20
-56 -11 -12 -79 102 -127 215 -28 67 -54 121 -56 119 -2 -2 5 -31 16 -65 10
-34 16 -63 13 -66 -7 -8 19 -66 29 -66 5 0 9 -7 9 -15 0 -8 -6 -15 -13 -15
-14 0 -153 251 -183 330 -21 56 -34 71 -34 41 0 -20 -4 -22 -25 -17 -17 4 -25
2 -25 -7 0 -30 82 -255 123 -335 64 -129 208 -368 278 -463 152 -206 451 -545
593 -671 112 -100 574 -408 611 -408 4 0 -4 10 -19 21 -46 36 -22 32 68 -13
58 -28 86 -48 86 -59 0 -17 97 -60 269 -120 30 -11 64 -25 75 -33 35 -22 118
-46 160 -46 23 0 84 -11 136 -25 52 -14 113 -25 135 -25 22 0 67 -12 100 -26
33 -15 91 -33 128 -42 71 -16 77 -15 90 22 4 12 118 -10 127 -24 3 -6 43 -5
105 1 60 5 225 6 415 2 363 -9 552 0 536 26 -3 5 1 15 10 22 12 10 20 10 35 1
14 -9 36 -8 96 3 43 8 101 15 128 15 28 0 59 6 70 14 11 8 43 16 70 19 73 8
166 31 285 70 58 19 130 40 160 47 118 27 337 112 443 174 23 13 61 29 84 35
145 39 690 489 933 771 72 83 107 113 122 104 5 -3 -31 -50 -78 -105 -47 -55
-83 -103 -80 -107 8 -7 11 -5 87 56 30 24 74 72 99 107 25 35 66 92 93 127
176 233 230 319 213 336 -2 2 -49 -62 -105 -141 -55 -79 -109 -151 -118 -158
-20 -16 -20 -18 39 76 42 67 41 86 -3 36 -50 -58 -42 -27 11 40 225 286 333
475 408 714 16 52 32 79 32 56 0 -21 -39 -146 -61 -198 -11 -25 -17 -48 -15
-50 7 -8 120 244 131 292 12 52 66 237 90 310 67 201 134 565 164 883 11 114
-2 607 -19 751 -12 100 -62 375 -91 506 -41 179 -122 439 -140 451 -12 7 -11
-23 2 -47 5 -11 18 -50 28 -87 10 -37 30 -110 44 -162 14 -52 32 -137 41 -189
9 -52 20 -108 26 -125 25 -79 61 -365 70 -561 9 -191 5 -529 -7 -547 -18 -31
-23 18 -23 250 0 399 -16 553 -100 967 -46 224 -153 555 -206 635 -13 20 -35
69 -49 109 -62 184 -212 418 -420 656 -347 399 -698 679 -1140 911 -222 116
-388 184 -595 242 -307 88 -554 142 -755 166 -323 40 -363 43 -411 35 -27 -4
-139 -8 -250 -8 -110 -1 -225 -5 -255 -10 -82 -14 -237 -23 -219 -13 8 5 58
15 110 22 52 6 145 18 205 26 61 8 143 14 183 14 41 0 72 4 72 10 0 6 -21 10
-47 10 -27 0 -64 2 -83 4 -19 3 -114 -2 -210 -10z m1240 -524 c11 -7 5 -8 -20
-4 -43 8 -51 14 -19 14 13 0 31 -5 39 -10z m-1107 -27 c-7 -2 -19 -2 -25 0 -7
3 -2 5 12 5 14 0 19 -2 13 -5z m577 -7 c147 -17 263 -36 256 -43 -2 -3 -35 0
-73 6 -116 18 -253 32 -388 40 l-130 8 105 1 c58 1 161 -5 230 -12z m723 -13
c-7 -2 -19 -2 -25 0 -7 3 -2 5 12 5 14 0 19 -2 13 -5z m126 -29 c2 -2 -10 -4
-27 -4 -17 0 -34 4 -37 10 -5 9 53 3 64 -6z m131 -38 c40 -13 42 -15 15 -15
-16 0 -41 6 -55 14 -32 18 -17 18 40 1z m-1637 -13 c-7 -2 -19 -2 -25 0 -7 3
-2 5 12 5 14 0 19 -2 13 -5z m1497 -78 c46 -14 103 -25 126 -25 32 0 42 -3 38
-13 -3 -10 15 -21 58 -36 35 -13 99 -36 143 -53 44 -16 98 -34 120 -40 22 -6
51 -23 65 -38 14 -15 48 -35 75 -45 28 -9 67 -30 87 -46 20 -16 44 -29 52 -29
8 0 24 -12 36 -27 11 -14 39 -35 62 -45 22 -10 75 -51 117 -91 117 -112 194
-175 225 -183 15 -3 31 -15 34 -25 13 -33 151 -184 187 -203 24 -13 35 -26 35
-42 0 -13 4 -25 9 -29 19 -11 101 -127 101 -142 0 -24 -22 -1 -100 102 -79
106 -328 351 -475 469 -267 213 -652 418 -975 516 -58 18 -109 36 -114 41 -16
14 4 11 94 -16z m378 -5 c59 -28 86 -49 40 -31 -61 24 -131 59 -118 60 8 1 43
-12 78 -29z m-730 -21 c210 -50 501 -146 664 -219 324 -145 560 -312 829 -586
234 -238 359 -390 359 -435 0 -10 6 -19 14 -19 7 0 53 -63 102 -140 54 -84 95
-140 105 -140 29 0 109 -204 109 -276 0 -34 4 -44 20 -49 15 -5 20 -15 20 -40
0 -21 6 -38 16 -43 8 -5 26 -47 39 -93 14 -51 18 -77 10 -66 -9 13 -14 15 -18
5 -2 -7 -1 -20 3 -28 4 -8 11 -39 15 -67 4 -29 11 -55 15 -58 16 -10 20 14 10
61 -12 52 -8 63 15 44 11 -9 14 -22 9 -46 -4 -21 -2 -40 6 -49 7 -9 9 -26 5
-45 -5 -22 -1 -40 13 -64 22 -37 20 -46 -10 -46 -23 0 -25 -52 -3 -94 9 -17
15 -55 15 -94 0 -80 20 -244 32 -256 4 -6 9 21 9 60 1 62 2 65 9 29 11 -54 11
-528 0 -590 -7 -38 -8 -16 -7 90 2 206 -2 339 -10 331 -5 -4 -8 -85 -9 -179 0
-181 -20 -405 -37 -422 -6 -7 -7 -3 -4 10 4 11 11 88 18 170 34 443 -64 1115
-222 1513 -71 178 -232 473 -343 627 -235 326 -567 633 -910 838 -196 119
-437 217 -775 318 -147 44 -190 59 -167 59 4 0 28 -5 54 -11z m-3273 -69 c-10
-11 -20 -18 -23 -15 -7 6 18 35 31 35 5 0 2 -9 -8 -20z m4263 -35 c82 -42 108
-59 74 -50 -26 8 -162 85 -149 85 4 0 38 -16 75 -35z m-4364 -200 c-9 -14 -31
-33 -48 -42 -29 -14 -28 -12 13 31 48 49 63 54 35 11z m-182 -192 c-45 -57
-111 -118 -118 -110 -7 6 128 147 141 147 4 0 -7 -17 -23 -37z m5183 -72 c-7
-6 -75 60 -75 73 0 6 18 -7 40 -29 22 -21 37 -41 35 -44z m166 -142 c15 -28
-6 -23 -25 6 -14 21 -14 24 -1 19 9 -4 20 -15 26 -25z m99 -99 c6 -11 7 -20 3
-20 -5 0 -14 9 -21 20 -7 11 -8 20 -2 20 5 0 14 -9 20 -20z m-220 -115 c19
-19 31 -35 28 -35 -8 0 -68 56 -68 64 0 11 5 7 40 -29z m439 -178 c40 -65 71
-120 68 -124 -3 -3 -19 16 -34 42 -15 27 -43 69 -62 94 -48 64 -91 133 -91
145 1 20 44 -38 119 -157z m-156 -197 c10 -16 16 -30 13 -30 -2 0 -14 14 -26
30 -12 17 -18 30 -13 30 5 0 17 -13 26 -30z m345 -135 c55 -109 141 -345 119
-325 -3 3 -30 66 -60 140 -30 74 -71 171 -91 215 -47 101 -21 77 32 -30z
m-283 35 c14 -27 22 -50 17 -50 -7 0 -52 82 -52 95 0 15 13 -1 35 -45z m171
-95 c20 -18 48 -91 95 -250 8 -25 7 -27 -6 -15 -8 8 -41 82 -75 163 -57 142
-72 185 -48 142 6 -11 21 -29 34 -40z m-6619 -277 c-3 -8 -6 -5 -6 6 -1 11 2
17 5 13 3 -3 4 -12 1 -19z m6775 -107 c9 -13 14 -30 11 -38 -3 -8 2 -42 11
-76 44 -171 116 -503 125 -587 7 -52 13 -210 15 -350 4 -250 4 -251 -4 -65
-10 240 -32 423 -70 585 -17 70 -30 137 -30 149 0 26 -55 266 -80 346 -10 33
-21 76 -24 95 l-6 35 18 -35 c9 -19 25 -46 34 -59z m247 -41 c1 -13 0 -13 -9
0 -5 8 -9 26 -9 40 l1 25 8 -25 c4 -14 8 -32 9 -40z m-7108 -60 c-5 -25 -9
-35 -10 -24 -1 28 11 92 16 79 1 -6 -1 -30 -6 -55z m7161 -163 c18 -69 36
-207 25 -197 -5 5 -49 200 -61 270 -9 57 14 8 36 -73z m-7190 -239 c-4 -61
-23 -128 -36 -128 -1 0 3 39 10 88 8 48 14 93 14 100 0 6 4 12 9 12 4 0 6 -33
3 -72z m7115 -10 c-3 -7 -5 -2 -5 12 0 14 2 19 5 13 2 -7 2 -19 0 -25z m43
-163 c14 -71 22 -156 27 -290 3 -104 3 -187 -1 -184 -4 4 -11 73 -17 155 -9
143 -34 361 -46 414 -4 17 -2 22 5 15 6 -5 20 -55 32 -110z m-216 55 c-4 -16
-2 -42 3 -57 6 -15 7 -37 3 -48 -5 -15 -10 -8 -19 33 -13 60 -14 86 -4 95 15
15 22 5 17 -23z m-6984 -165 c0 -14 -4 -25 -10 -25 -11 0 -14 33 -3 43 11 11
13 8 13 -18z m7057 -452 c-2 -37 -3 -9 -3 62 0 72 1 102 3 68 2 -34 2 -93 0
-130z m160 -75 c-2 -13 -4 -5 -4 17 -1 22 1 32 4 23 2 -10 2 -28 0 -40z
m-6241 -146 c-4 -3 -11 -1 -18 6 -8 8 -8 15 3 28 13 16 14 16 17 -5 2 -13 1
-25 -2 -29z m6061 -79 c-2 -16 -4 -3 -4 27 0 30 2 43 4 28 2 -16 2 -40 0 -55z
m-50 -20 c-3 -10 -5 -4 -5 12 0 17 2 24 5 18 2 -7 2 -21 0 -30z m589 -35 c-9
-89 -49 -303 -54 -290 -4 14 49 352 56 352 2 0 2 -28 -2 -62z m-411 -115 c-12
-129 -60 -352 -72 -339 -3 3 38 251 63 379 10 51 16 27 9 -40z m-228 -115 c-3
-8 -6 -5 -6 6 -1 11 2 17 5 13 3 -3 4 -12 1 -19z m-17 -65 c-11 -17 -11 -17
-6 0 3 10 7 26 7 35 1 15 2 15 6 0 2 -10 -1 -25 -7 -35z m37 -75 c-3 -8 -6 -5
-6 6 -1 11 2 17 5 13 3 -3 4 -12 1 -19z m495 -220 c-8 -8 -9 -4 -5 13 4 13 8
18 11 10 2 -7 -1 -18 -6 -23z m-705 -160 c-3 -8 -6 -5 -6 6 -1 11 2 17 5 13 3
-3 4 -12 1 -19z m-44 -121 c-10 -26 -21 -47 -25 -47 -4 0 3 23 14 50 26 63 34
60 11 -3z m40 13 c-3 -11 -10 -23 -16 -27 -5 -3 -8 -2 -5 3 3 5 8 17 11 27 9
24 16 22 10 -3z m-33 -68 c0 -5 -7 -17 -15 -28 -14 -18 -14 -17 -4 9 12 27 19
34 19 19z m-131 -204 l-22 -43 23 20 23 20 -7 -22 c-4 -13 -36 -75 -72 -140
-35 -64 -64 -121 -64 -127 1 -16 25 18 87 122 30 51 57 92 59 90 8 -9 -19 -84
-37 -104 -11 -11 -34 -49 -52 -85 -43 -85 -113 -186 -137 -199 -26 -14 -25 -7
5 38 14 20 25 40 25 45 0 13 -83 -86 -181 -218 -73 -98 -79 -108 -32 -55 32
35 78 85 102 110 l43 45 -27 -50 c-56 -101 -129 -187 -312 -365 -180 -176
-234 -217 -272 -205 -13 4 -54 -19 -127 -71 -125 -87 -201 -133 -333 -198 -51
-26 -91 -49 -88 -52 9 -9 112 43 267 135 84 50 158 91 163 91 4 0 -1 -13 -13
-30 -12 -16 -28 -30 -36 -30 -9 0 -44 -20 -79 -45 -54 -39 -190 -108 -517
-264 -68 -32 -91 -49 -42 -31 32 13 51 13 39 1 -6 -5 -35 -17 -65 -26 -83 -27
-87 -28 -60 -11 14 8 23 15 20 16 -6 0 -578 -135 -620 -146 l-25 -7 30 -6 c48
-10 -186 -51 -255 -45 -34 4 -50 2 -42 -4 20 -14 -278 -33 -324 -20 -21 5 -61
7 -89 3 -73 -9 -216 -5 -240 8 -11 6 -45 12 -75 13 -30 1 -95 13 -145 28 -69
20 -79 24 -42 20 164 -19 233 -24 317 -23 l95 2 -120 12 c-66 7 -183 24 -260
37 l-140 23 80 3 c89 4 165 -5 165 -18 0 -15 89 -24 105 -10 11 9 40 11 103 7
96 -6 382 7 507 24 72 9 170 29 455 90 721 156 1365 523 1781 1014 122 145
260 332 329 449 36 60 73 114 82 120 10 6 18 17 18 24 0 18 40 95 46 89 3 -3
-5 -25 -17 -49z m-6146 -240 c46 -95 118 -230 160 -300 78 -128 89 -150 63
-128 -38 30 -237 379 -281 490 -21 52 -39 98 -42 103 -2 4 0 7 6 7 5 0 48 -78
94 -172z m181 -247 c-7 -7 -34 28 -34 43 1 6 10 0 21 -13 11 -13 17 -27 13
-30z m5876 -124 c-11 -19 -45 -61 -76 -93 -54 -58 -55 -58 -26 -14 29 43 110
140 118 140 2 0 -6 -15 -16 -33z m-5725 -122 c64 -104 277 -327 525 -549 227
-205 559 -403 910 -545 151 -61 193 -73 305 -91 72 -11 202 -36 290 -56 188
-41 267 -52 470 -64 83 -5 177 -14 210 -20 108 -20 738 16 865 49 76 20 98 21
62 2 -29 -15 -172 -39 -350 -57 -209 -21 -898 -25 -987 -6 -33 7 -121 26 -195
42 -319 68 -384 84 -558 131 -276 76 -456 160 -722 338 -180 120 -250 175
-377 295 -199 188 -547 606 -504 606 5 0 30 -34 56 -75z m420 -206 c33 -36 97
-96 143 -133 89 -74 111 -107 35 -55 -90 63 -353 333 -353 364 0 9 40 -30 175
-176z m-224 154 c13 -16 12 -17 -3 -4 -10 7 -18 15 -18 17 0 8 8 3 21 -13z
m49 -58 c14 -19 14 -19 -2 -6 -10 7 -18 18 -18 24 0 6 1 8 3 6 1 -2 9 -13 17
-24z m223 -221 c45 -37 102 -87 127 -110 25 -23 79 -64 122 -91 42 -26 134
-87 205 -135 71 -47 162 -103 201 -124 66 -33 95 -54 76 -54 -17 0 -266 136
-353 193 -201 132 -524 412 -560 487 -7 14 12 -3 43 -37 31 -34 93 -92 139
-129z m4787 101 c-13 -14 -26 -22 -29 -19 -3 3 5 14 19 24 34 27 38 25 10 -5z
m-100 -90 c-7 -8 -17 -15 -22 -15 -6 0 -5 7 2 15 7 8 17 15 22 15 6 0 5 -7 -2
-15z m88 -77 c-6 -18 -88 -82 -88 -68 0 15 64 80 80 80 6 0 10 -5 8 -12z
m-303 -34 c-16 -14 -38 -30 -49 -35 -33 -19 -13 14 24 39 45 30 62 27 25 -4z
m-4199 -49 c30 -19 62 -35 71 -35 9 0 40 -18 69 -40 29 -22 70 -47 92 -55 22
-9 52 -30 67 -47 42 -47 352 -189 555 -254 41 -13 144 -40 230 -60 199 -45
233 -54 228 -60 -3 -2 -58 7 -124 21 -488 103 -805 230 -1096 438 -154 110
-214 170 -92 92z m4244 -129 c0 -2 -7 -7 -16 -10 -8 -3 -12 -2 -9 4 6 10 25
14 25 6z m-3760 -132 c0 -2 -9 0 -20 6 -11 6 -20 13 -20 16 0 2 9 0 20 -6 11
-6 20 -13 20 -16z m3150 -59 c0 -2 -10 -9 -22 -15 -22 -11 -22 -10 -4 4 21 17
26 19 26 11z m-3305 -55 c3 -6 -1 -7 -9 -4 -18 7 -21 14 -7 14 6 0 13 -4 16
-10z m633 -26 c23 -7 31 -34 10 -34 -19 0 -119 28 -126 34 -7 8 87 7 116 0z
m2752 -24 c-8 -5 -19 -10 -25 -10 -5 0 -3 5 5 10 8 5 20 10 25 10 6 0 3 -5 -5
-10z m-990 -4 c0 -2 -13 -6 -29 -8 -17 -2 -28 -1 -25 4 5 8 54 12 54 4z
m-2178 -45 c40 -16 215 -73 388 -125 300 -92 390 -122 330 -111 -82 14 -345
84 -460 122 -128 42 -350 130 -350 139 0 9 21 3 92 -25z m2075 23 c-3 -3 -12
-4 -19 -1 -8 3 -5 6 6 6 11 1 17 -2 13 -5z m-1456 -21 c20 -4 29 -1 29 7 0 19
55 5 81 -21 l22 -22 -49 6 c-27 3 -76 15 -109 26 -55 19 -51 20 26 4z m2459 7
c-8 -5 -19 -10 -25 -10 -5 0 -3 5 5 10 8 5 20 10 25 10 6 0 3 -5 -5 -10z
m-395 -20 c-11 -5 -27 -9 -35 -9 -13 -1 -13 0 0 9 8 5 24 9 35 9 l20 0 -20 -9z
m-136 -34 c-2 -2 -17 -6 -34 -10 -22 -5 -26 -4 -15 4 14 9 59 15 49 6z m-159
-36 c-8 -5 -24 -9 -35 -9 -16 1 -16 2 5 9 35 11 48 11 30 0z m-607 -137 c-7
-2 -19 -2 -25 0 -7 3 -2 5 12 5 14 0 19 -2 13 -5z m-96 -9 c-3 -3 -12 -4 -19
-1 -8 3 -5 6 6 6 11 1 17 -2 13 -5z m226 -11 c-7 -2 -19 -2 -25 0 -7 3 -2 5
12 5 14 0 19 -2 13 -5z m-108 -13 c-38 -4 -128 -7 -200 -7 l-130 1 135 6 c74
3 164 6 200 6 l65 1 -70 -7z m-678 -46 c-3 -3 -12 -4 -19 -1 -8 3 -5 6 6 6 11
1 17 -2 13 -5z m-752 -64 c8 -13 -5 -13 -25 0 -13 8 -13 10 2 10 9 0 20 -4 23
-10z m905 -131 c22 -5 3 -6 -55 -2 -49 3 -99 9 -110 14 -24 10 115 1 165 -12z
m775 -19 c-3 -5 -21 -10 -38 -9 -31 1 -31 1 -7 9 36 11 52 11 45 0z"/>
<path d="M6299 1633 c-13 -16 -12 -17 4 -4 16 13 21 21 13 21 -2 0 -10 -8 -17
-17z"/>
<path d="M6157 1584 c-27 -20 -46 -38 -43 -41 5 -5 96 63 96 73 0 7 -3 5 -53
-32z"/>
<path d="M6224 1569 c-19 -22 -19 -22 3 -10 24 12 39 31 25 31 -5 0 -17 -10
-28 -21z"/>
<path d="M6159 1513 c-13 -17 -13 -17 6 -3 11 8 22 16 24 17 2 2 0 3 -6 3 -6
0 -17 -8 -24 -17z"/>
<path d="M5899 1393 c-13 -15 -12 -15 9 -4 23 12 28 21 13 21 -5 0 -15 -7 -22
-17z"/>
<path d="M5804 1334 c-18 -14 -18 -14 6 -3 31 14 36 19 24 19 -6 0 -19 -7 -30
-16z"/>
<path d="M5610 1225 c-25 -13 -38 -24 -30 -25 16 0 80 36 80 45 0 7 1 7 -50
-20z"/>
<path d="M5392 1129 c-29 -12 -51 -23 -48 -26 10 -10 71 7 96 27 32 25 19 24
-48 -1z"/>
<path d="M5285 1034 c-83 -32 -361 -119 -464 -144 -23 -6 -41 -13 -39 -16 15
-14 434 112 553 167 82 37 59 34 -50 -7z"/>
<path d="M5070 1010 c0 -5 4 -10 9 -10 6 0 13 5 16 10 3 6 -1 10 -9 10 -9 0
-16 -4 -16 -10z"/>
<path d="M4295 7951 c11 -4 106 -13 210 -20 232 -15 313 -25 479 -62 142 -32
155 -34 140 -19 -14 14 -152 46 -279 65 -231 34 -608 59 -550 36z"/>
<path d="M5270 7810 c8 -5 22 -9 30 -9 10 0 8 3 -5 9 -27 12 -43 12 -25 0z"/>
<path d="M5345 7790 c11 -5 27 -9 35 -9 9 0 8 4 -5 9 -11 5 -27 9 -35 9 -9 0
-8 -4 5 -9z"/>
<path d="M5420 7770 c34 -11 60 -11 35 0 -11 5 -29 8 -40 8 -16 0 -15 -2 5 -8z"/>
<path d="M5940 7565 c14 -8 36 -14 50 -14 22 0 21 2 -10 14 -47 18 -71 18 -40
0z"/>
<path d="M6029 7536 c8 -10 33 -26 55 -37 40 -20 40 -20 17 -1 -14 11 -38 28
-55 38 -29 17 -30 17 -17 0z"/>
<path d="M6510 7238 c3 -3 37 -29 75 -59 137 -103 252 -205 396 -350 81 -80
152 -156 158 -168 11 -20 41 -30 41 -13 0 37 -271 300 -452 439 -118 90 -239
174 -218 151z"/>
<path d="M1110 6610 c0 -5 5 -10 10 -10 6 0 10 5 10 10 0 6 -4 10 -10 10 -5 0
-10 -4 -10 -10z"/>
<path d="M7220 6596 c0 -8 33 -55 97 -134 23 -29 56 -79 73 -111 33 -61 89
-134 90 -116 0 19 -89 168 -144 240 -55 71 -116 135 -116 121z"/>
<path d="M971 6401 c-7 -5 -12 -14 -10 -20 2 -6 10 -2 17 9 14 22 13 23 -7 11z"/>
<path d="M6489 6193 c12 -18 24 -33 27 -33 9 0 -15 37 -33 51 -12 10 -11 5 6
-18z"/>
<path d="M7552 6115 c1 -16 9 -30 16 -33 18 -6 15 33 -4 49 -14 11 -15 9 -12
-16z"/>
<path d="M7226 4340 c8 -167 22 -332 30 -339 12 -11 -6 343 -20 399 -15 55
-15 54 -10 -60z"/>
<path d="M8070 3895 c0 -22 -2 -65 -5 -95 l-5 -55 15 50 c17 58 19 104 5 125
-7 11 -10 5 -10 -25z"/>
<path d="M7220 3843 c0 -30 -45 -275 -66 -356 -14 -55 -23 -104 -21 -111 6
-18 24 47 57 204 55 260 57 270 40 270 -5 0 -10 -3 -10 -7z"/>
<path d="M424 3486 c-8 -22 3 -49 19 -43 6 2 12 14 12 27 0 27 -22 39 -31 16z"/>
<path d="M551 3041 c-2 -36 86 -318 95 -308 3 2 -18 75 -45 163 -28 87 -50
153 -50 145z"/>
<path d="M1040 2671 c0 -5 5 -13 10 -16 6 -3 10 -2 10 4 0 5 -4 13 -10 16 -5
3 -10 2 -10 -4z"/>
<path d="M886 2640 c3 -14 10 -29 15 -34 14 -16 10 6 -7 34 l-15 25 7 -25z"/>
<path d="M1089 2345 c11 -22 27 -49 36 -60 11 -14 10 -9 -4 20 -11 22 -27 49
-36 60 -11 14 -10 9 4 -20z"/>
<path d="M1340 2082 c0 -15 28 -47 35 -40 8 8 -13 48 -25 48 -6 0 -10 -4 -10
-8z"/>
<path d="M7375 1895 c-21 -20 -34 -55 -21 -55 2 0 19 18 36 40 35 44 24 55
-15 15z"/>
<path d="M1698 1763 c12 -18 51 -57 85 -88 64 -57 206 -160 212 -153 2 1 -53
50 -122 108 -69 58 -142 119 -162 135 l-36 30 23 -32z"/>
<path d="M5847 1563 c-59 -42 -105 -78 -103 -81 5 -5 148 90 201 133 61 50 7
21 -98 -52z"/>
<path d="M5690 1455 c-16 -19 0 -19 26 0 16 12 16 14 3 15 -9 0 -22 -7 -29
-15z"/>
<path d="M6917 1432 c-28 -30 -20 -49 8 -22 25 24 32 40 17 40 -5 0 -16 -8
-25 -18z"/>
<path d="M2310 1335 c0 -2 23 -16 50 -30 61 -31 66 -25 7 10 -43 25 -57 30
-57 20z"/>
<path d="M6791 1289 c-17 -17 -36 -41 -42 -52 -6 -12 12 0 40 28 28 27 51 51
51 52 0 11 -23 -2 -49 -28z"/>
<path d="M2490 1245 c14 -8 32 -14 40 -15 23 0 -2 17 -35 24 l-30 6 25 -15z"/>
<path d="M2584 1201 c3 -5 95 -38 203 -74 165 -55 240 -73 449 -111 242 -44
420 -66 534 -66 39 0 51 3 40 10 -8 5 -32 10 -53 10 -55 0 -510 66 -657 96
-130 26 -268 65 -406 115 -81 29 -120 36 -110 20z"/>
<path d="M6659 1153 l-24 -28 28 24 c15 14 27 26 27 28 0 8 -8 1 -31 -24z"/>
<path d="M6523 1048 c-27 -24 -64 -50 -81 -57 -18 -7 -32 -20 -32 -27 0 -8 3
-14 6 -14 11 0 128 86 148 109 36 40 8 32 -41 -11z"/>
<path d="M6210 824 c-78 -46 -92 -55 -87 -61 8 -7 103 46 123 68 22 25 18 24
-36 -7z"/>
<path d="M6031 717 c-34 -17 -41 -41 -10 -32 31 9 70 45 49 45 -8 0 -26 -6
-39 -13z"/>
<path d="M5900 659 c-33 -20 -62 -50 -55 -57 6 -7 115 53 112 62 -6 18 -22 16
-57 -5z"/>
<path d="M3305 326 c22 -7 42 -12 44 -10 8 7 -4 11 -44 17 l-40 6 40 -13z"/>
<path d="M0 10 c0 -7 1383 -10 4130 -10 2747 0 4130 3 4130 10 0 7 -1383 10
-4130 10 -2747 0 -4130 -3 -4130 -10z"/>
</g>
</svg>
